<svg xmlns="http://www.w3.org/2000/svg" viewBox="0 0 128 128" width="128" height="128">
<rect width="128" height="128" rx="20" fill="#EEF1F7"/>
<path d="M36 44 L30 20 L52 32 Z" fill="#F7C873" stroke="#C9944A" stroke-width="3" stroke-linejoin="round"/><path d="M92 44 L98 20 L76 32 Z" fill="#F7C873" stroke="#C9944A" stroke-width="3" stroke-linejoin="round"/><path d="M38 40 L35 28 L46 34 Z" fill="#F09EA8"/><path d="M90 40 L93 28 L82 34 Z" fill="#F09EA8"/><ellipse cx="64" cy="58" rx="31" ry="28" fill="#F7C873" stroke="#C9944A" stroke-width="3"/><g stroke="#C9944A" stroke-width="2" stroke-linecap="round"><path d="M30 58 h12"/><path d="M30 66 h12"/><path d="M98 58 h-12"/><path d="M98 66 h-12"/></g><circle cx="52" cy="54" r="5" fill="#3B2C1E"/><circle cx="76" cy="54" r="5" fill="#3B2C1E"/><circle cx="54" cy="52" r="2" fill="#fff"/><circle cx="78" cy="52" r="2" fill="#fff"/><path d="M60 62 h8 l-4 5 Z" fill="#E08A93"/><path d="M56 72 q8 5 16 0" stroke="#3B2C1E" stroke-width="3" fill="none" stroke-linecap="round"/><rect x="34" y="84" width="60" height="34" rx="5" fill="#33415C" stroke="#22304A" stroke-width="3"/><g stroke="#7FE0B0" stroke-width="3" stroke-linecap="round" fill="none"><path d="M48 96 l-6 6 6 6"/><path d="M80 96 l6 6 -6 6"/><path d="M70 94 l-12 20"/></g>
</svg>